<svg version="1" xmlns="http://www.w3.org/2000/svg" width="346.667" height="346.667" viewBox="0 0 260.000000 260.000000"><path d="M117 1.6c-1.4.2-5.6.9-9.5 1.5-16.4 2.6-37.6 11.5-52.2 21.8C46 31.5 31.5 46 24.9 55.3 15 69.3 7.2 87.4 3.4 105.2c-2.5 11.6-2.5 38 0 49.6C9 181 20.7 202.6 39 221c18.4 18.3 40 30 66.2 35.6 11.6 2.5 38 2.5 49.6 0C181 251 202.6 239.3 221 221c18.3-18.4 30-40 35.6-66.2 2.5-11.6 2.5-38 0-49.6C251 79 239.3 57.4 221 39c-18.3-18.3-40.2-30.1-66-35.6-7.1-1.5-32.7-2.7-38-1.8zm33.2 30c39.5 8.1 69.5 38.1 78.5 78.9 2.1 9.4 2 29.7-.1 39.3-8.3 37.6-34.9 66.3-71 76.7-31.5 9-65.1 2.3-90.6-18.2-26.1-20.9-40.5-55.2-37-87.6 4.7-42.4 32.4-75.7 72.5-87.2 15.8-4.5 31.7-5.2 47.7-1.9z"/><path d="M118.5 37C102.4 39.2 82.9 47.6 71 57.3c-14.9 12.2-27.5 32.2-32.1 51.2-3.1 12.5-3.1 30.4 0 43 2.6 10.9 10.1 26.6 16.9 35.5 12.9 17 33 29.8 54.7 34.6 11.5 2.6 29.3 2.4 40.9-.5 17.1-4.1 36-15.1 47.2-27.4 10.4-11.3 18.9-27.3 22.6-42.6 3-12.1 3-30.2-.1-42.5-4.6-18.9-16.6-38.3-31.3-50.6-9.3-7.7-26.3-16.2-37.8-18.9-10-2.4-25.1-3.3-33.5-2.1zm14.1 32.5c2 25.6 2 28.1.5 35-2.1 10.2-4.1 10.2-6.2 0-1.5-6.9-1.5-9.4.5-35 1.1-15.1 2.3-27.5 2.6-27.5.3 0 1.5 12.4 2.6 27.5zm-9.5 35.3c.9 5.5.9 7.6.1 8.4-.6.6-1.3 1-1.5.7-7.8-9.6-9.8-14.9-26.3-66.6-.3-1 5.5 9.9 12.9 24.2 11.3 21.8 13.7 27.2 14.8 33.3zM155.9 74c-7.3 22.5-9.7 28.6-13.2 33.7-2.3 3.4-4.6 6.3-5 6.3-1.6 0-1.9-3.3-.7-9.8 1-5.2 4.1-12.2 14.4-32.4 7.2-14.1 13.2-25.5 13.3-25.4.1.1-3.8 12.5-8.8 27.6zM93.6 89.2c13.1 11.3 17.9 16.1 20.8 20.8 2.6 4.2 3.5 6.5 2.8 7.2-.7.7-3-.2-7.2-2.8-6-3.7-7.5-5.3-40.9-44.4l-5.6-6.5 6.5 5.6c3.6 3 14.2 12.1 23.6 20.1zm97.2-19c-3 3.5-12 14-20 23.4-11.3 13.1-16.1 17.9-20.8 20.8-8.2 5.1-9.5 3.8-4.4-4.4 3.1-5 8.3-10.1 26.8-26 12.7-11 23.3-19.9 23.5-20 .2 0-2.1 2.8-5.1 6.2zM75.4 104.5c25.4 8.3 29.9 10.3 38.5 17.2.3.2 0 .8-.7 1.5-.8.8-2.9.8-8.3-.1-6.2-1-11.1-3.2-33.3-14.7-14.4-7.5-25.3-13.3-24.3-13 1 .3 13.6 4.4 28.1 9.1zm113.2 3.9c-22 11.3-27.1 13.6-33.3 14.6-5.5 1-7.7 1-8.5.2-.7-.7-1-1.3-.7-1.5 9.8-7.5 12-8.4 38.8-17.4 15.2-5 28.1-9.1 28.6-9.2.6 0-10.7 6-24.9 13.3zm-51.5 14.5c6.4 6.5 2 17.1-7.1 17.1-5.8 0-10-4.2-10-10s4.2-10 10-10c3.3 0 4.8.6 7.1 2.9zm-33.3 3.8c6.1 1.3 8.2 2.1 8.2 3.3 0 1.2-2 2-7.5 3.1-6.9 1.5-9.4 1.5-35-.5-15.1-1.1-27.5-2.3-27.5-2.6 0-.4 11.8-1.5 26.3-2.7 14.4-1.1 26.4-2.1 26.7-2.2.3 0 4.2.7 8.8 1.6zm89.5.9c13.6 1 24.7 2.1 24.7 2.4 0 .3-12.4 1.5-27.5 2.6-25.6 2-28.1 2-35 .5-10.2-2.1-10.2-4.1-.2-6.3 3.9-.9 8.6-1.5 10.2-1.3 1.7.2 14.1 1.2 27.8 2.1zm-79.7 9.9c.2.5-2.5 2.9-5.9 5.3-5.8 3.9-19.2 8.8-60.4 21.8-1 .3 9.7-5.4 23.7-12.7 24.7-12.8 32.6-16 39.4-15.6 1.6.1 3.1.6 3.2 1.2zm43.9-.1c4.1.8 14.3 5.6 31.5 14.5 14 7.3 24.7 13 23.7 12.7-51.5-16.4-55.7-18-66.6-26.2-.1-.1 0-.7.4-1.3.8-1.4 3.6-1.3 11 .3zm-40 5.6c.3.6-1.1 3.7-3.1 7.1-2.9 4.6-7.8 9.5-20.8 20.7-9.4 8-20 17.1-23.6 20.1l-6.5 5.6 6-7c30.9-36.3 34.2-39.9 40-43.6 6.5-4.2 7.1-4.4 8-2.9zm32.7 2.7c5.8 3.6 7.6 5.5 40.7 44.3l5.6 6.5-6.5-5.6c-39-33.3-40.7-34.9-44.4-40.8-3.2-5.3-3.9-8.1-1.9-8.1.3 0 3.2 1.7 6.5 3.7zm-26.6 1.8c.4.8.1 4.6-.6 8.3-1 5.3-4.1 12.1-14.7 32.7-7.4 14.3-13.2 25.2-12.9 24.2 13.2-41.7 17.9-54.6 21.8-60.4 4.5-6.5 5.5-7.3 6.4-4.8zm19.2 4.8c3.9 5.8 8.6 18.7 21.8 60.4.3 1-5.5-9.9-12.9-24.2-10.6-20.6-13.7-27.4-14.7-32.7-1.2-6.5-.9-9.8.7-9.8.4 0 2.7 2.9 5.1 6.3zm-9.7 3.2c1.5 6.9 1.5 9.4-.5 35-1.1 15.1-2.3 27.5-2.6 27.5-.3 0-1.5-12.4-2.6-27.5-2-25.6-2-28.1-.5-35 1.1-5.5 1.9-7.5 3.1-7.5 1.2 0 2 2 3.1 7.5z"/></svg>